<?xml version="1.0" standalone="no"?>
<!DOCTYPE svg PUBLIC "-//W3C//DTD SVG 20010904//EN"
 "http://www.w3.org/TR/2001/REC-SVG-20010904/DTD/svg10.dtd">
<svg version="1.0" xmlns="http://www.w3.org/2000/svg"
 width="512.000000pt" height="512.000000pt" viewBox="0 0 512.000000 512.000000"
 preserveAspectRatio="xMidYMid meet">
<metadata>
Created by potrace 1.11, written by Peter Selinger 2001-2013
</metadata>
<g transform="translate(0.000000,512.000000) scale(0.100000,-0.100000)"
fill="#000000" stroke="none">
<path d="M2341 5109 c-893 -79 -1678 -615 -2071 -1414 -130 -264 -197 -477
-241 -766 -28 -183 -31 -508 -5 -696 96 -711 456 -1316 1036 -1744 448 -330
1030 -507 1595 -485 651 25 1255 289 1714 747 527 528 802 1269 742 1999 -67
802 -480 1504 -1146 1947 -468 311 -1062 462 -1624 412z m499 -403 c521 -86
960 -382 1240 -836 51 -82 126 -240 158 -335 172 -495 116 -1045 -151 -1495
-142 -239 -377 -476 -599 -606 l-68 -39 0 -115 0 -115 165 -165 165 -165 0
-106 0 -107 -1184 -7 c-651 -4 -1189 -4 -1195 -1 -7 5 -11 47 -11 113 l0 107
170 171 170 171 0 107 0 107 -46 28 c-157 92 -354 262 -467 400 -180 221 -313
496 -367 759 -72 356 -44 690 86 1027 166 430 525 799 953 980 143 61 323 111
451 125 58 7 114 14 125 16 42 8 324 -6 405 -19z"/>
</g>
</svg>
